<?xml version="1.0" encoding="UTF-8"?>
<svg id="Layer_1" data-name="Layer 1" xmlns="http://www.w3.org/2000/svg" viewBox="0 0 16 16">
  <defs>
    <style>
      .cls-1 {
        fill: #010203;
      }
      @media (prefers-color-scheme: dark) {
      .cls-1 {
        fill: white;
      }
    }
    </style>
  </defs>
  <path class="cls-1" d="M5.9,7.73c0,.28-.12.55-.14.83-.06.9.35,1.55.97,2.14.73.71,1.17,1.13,1.41,2.19.07.32.13.7.04,1.02l-.35-1.1c-.57-1.61-2.56-2.09-2.44-4.02.02-.31.15-.71.36-.95.02-.02.13-.14.14-.11Z"/>
  <path class="cls-1" d="M6.48,7.97c0,.32-.04.61,0,.93.05.38.2.72.29,1.09-.22-.07-.39-.35-.47-.56-.14-.34-.2-.71-.09-1.07.04-.13.13-.34.27-.39Z"/>
  <g>
    <path class="cls-1" d="M10.7,13.32l.1-.78c-.43-.35-.84-.72-1.16-1.17-.11-.15-.52-.82-.53-.96-.05-.52.86-.66,1.21-.81.59-.27.87-.7.92-1.35-.33-.07-.66-.22-.77-.56-.03-.09-.02-.22-.05-.3-.02-.05-.13-.14-.18-.22-.22-.34-.24-.85-.11-1.22.04-.11.17-.27.18-.34.03-.12-.01-.33.02-.5.1-.49.44-.69.86-.88.08-.04.22-.05.29-.1.06-.04.11-.15.17-.21.48-.47,1.36-.4,1.95-.17.15.06.34.21.48.24.16.05.35.03.52.07.55.12.99.73.77,1.28-.08.19-.21.29-.33.44.06.58.27,1.17.34,1.74.06.45-.06.49-.5.42-.01.22-.2.3-.25.53-.06.28.11.46-.1.76-.19.27-.57.25-.86.23l-.08.48c.67.41,1.36.82,1.35,1.72-.02.79-.37,1.34-1.15,1.56l-.03.46c.3.03.65.02.65.4,0,.15-.03.61-.06.75-.1.49-.72.31-1.08.28-.94-.1-1.98-.15-2.92-.33-.16-.03-.33-.06-.39-.22s-.03-.87.04-1.04c.03-.08.2-.24.27-.23l.45.05ZM13.65,4.2c-.46-.16-1.21-.34-1.62.01-.08.06-.18.28-.2.29-.07.04-.36.06-.5.12-.24.11-.48.37-.54.63-.04.18,0,.36-.03.5-.02.11-.18.22-.22.36-.06.22-.06.51.04.72.06.11.2.2.23.27.04.1.02.28.08.42.07.18.23.32.43.28.25-.37-.07-.54-.16-.87-.15-.52.11-1.16.73-1.01.21.05.31.32.54.22.43-.19-.39-.75.04-.83.22-.04.25.09.41.16.23.1.49.08.72-.02.16-.07.41-.33.52-.34.18-.02.2.12.32.18.45.25.78-.41.21-.7-.5-.25-.71,0-1.12.17-.31.13-.5.16-.83.09-.14-.03-.48-.19-.23-.32.11-.06.55-.06.73-.11.11-.03.28-.1.39-.15.03-.02.06.01.05-.06ZM14.95,7.5c-.06-.25-.13-.5-.18-.75-.04-.19-.09-.76-.16-.89-.05-.09-.4-.22-.5-.2-.06.01-.12.07-.18.1-.29.11-.61.22-.92.17.01.4-.38.76-.78.67-.18-.04-.52-.44-.65-.14-.11.24.08.65.3.79.13.08.39.08.36.25-.03.18-.23.25-.4.2-.12.43-.18.9-.31,1.33-.12.39-.3.58-.62.82-.05.04-.31.15-.28.2.58.4,1.03.93,1.67,1.26.35.18,1.12.5,1.42.11.25-.33.02-.7-.22-.95l-.16.33c-.26.09-.32-.2-.32-.4,0-.16.18-.91.14-.97-.5-.14-.82-.53-.73-1.06.3.18.51.43.85.55.18.07.87.24.95-.02.04-.14-.06-.22-.06-.29,0-.05.1-.1.08-.2-.16-.07-.35-.13-.31-.35.05-.11.33.05.45-.08.11-.12-.06-.2-.03-.32.04-.17.45-.15.58-.14ZM14.27,11.01c0,.43-.23.91-.68,1.01-.92.2-2.13-.7-2.75-1.32-.09-.09-.45-.54-.51-.56-.08-.03-.36.08-.48.03-.02.09.09.1.14.16.55.6.78,1.39,1.48,1.91,1.08.81,3.23.94,2.94-.96l-.14-.27ZM13.25,13.61c.05-.33,0-.22-.21-.24-.61-.05-1.21-.2-1.74-.51-.06,0-.13.44-.14.52l2.08.23ZM10.43,13.8l-.07.4c.18.12.38.07.56.09.84.09,1.65.24,2.49.28.12,0,.27.05.37.04.16-.01.2-.39-.01-.44-.43-.11-1.12-.12-1.59-.18-.12-.01-.22-.03-.34-.04-.47-.05-.94-.11-1.41-.16Z"/>
    <path class="cls-1" d="M14.35,6.33c.02.09-.07.15-.08.23-.03.13,0,.5-.26.35-.08-.05-.07-.18-.09-.18-.2,0-.39.2-.58.06-.07-.12.33-.37.43-.42.19-.08.39-.14.58-.03Z"/>
    <path class="cls-1" d="M11.93,5.21c-.1.02-.23.06-.32.11-.18.1-.33.4-.55.27-.04-.45.52-.65.88-.47v.09Z"/>
  </g>
  <path class="cls-1" d="M3.21,7.38c-.09.09-.02.07.03.02.14-.15.23-.35.41-.46.39,1,.48,2.21.28,3.27-.03.17-.07.38-.15.53.04.03.06-.04.08-.06.04-.06.3-.56.35-.53.21.43.22.99.18,1.46-.06.63-.34,1.11-.23,1.78.06.36.26.78.25,1.13,0,.09-.13.62-.26.57-.22-.51-.39-1.11-.43-1.66-.02-.18.02-.46-.02-.63-.2-.75-.57-1.55-.79-2.32-.45-1.58-.59-3.28-.56-4.91-.05.05-.06.18-.07.26-.09.61-.15,1.26-.12,1.87.07,1.87.75,3.65,1.4,5.39-.02.07-.3-.11-.34-.13-.55-.38-1.28-1.5-1.45-2.14-.01-.05-.03-.07,0-.12l.65.39c-.94-.84-1.29-2.13-1.32-3.35-.03-1.14.27-2.42.9-3.39.1-.15.56-.81.74-.77.25.39.38.88.48,1.34.18.81.25,1.66.01,2.47Z"/>
  <g>
    <path class="cls-1" d="M6.97,7.55c-.02.09-.11.32-.18.38-.12.1-.44-.14-.56-.21-.13-.08-.57-.35-.66-.44-.17-.18.1-.37.13-.56-.29-.09-.36-.26-.2-.52l-1.28-.79c-.2-.17.1-.48.23-.61.72-.73,2.04-1.19,2.89-1.77.6-.95.96-1.91,2-2.48.33-.18,1.01-.52,1.24-.06.43.84-.07,2.13-.48,2.89-.13.24-.33.49-.45.73s-.14.74-.16,1.02c-.05.8.05,2.2-.28,2.89-.17.35-.28.25-.56.1-.34-.18-.65-.42-.99-.59-.05,0-.2.19-.29.2s-.4-.2-.42-.18ZM10.18.7c-.48.08-.94.38-1.28.72l1.28.72c.12-.47.19-.98,0-1.44ZM7.38,7.17l2.62-4.52s0-.05-.02-.07c-.04-.04-.26-.17-.33-.22-.12-.08-.92-.54-1-.53l-2.68,4.49s.08.08.12.1c.05.03.38.21.4.2.28-.46.53-.95.85-1.39.05-.07.47-.66.57-.56-.13.8-.61,1.5-1.03,2.17l.51.34ZM5.79,5.8l1.04-1.88c-.05.02-.11.04-.16.07-.49.25-1.13.6-1.59.89-.08.05-.34.24-.37.31-.02.04.02.04.03.05.05.03.12.04.18.07.12.06.82.54.88.49ZM9.04,5.23l-1.15,1.9c0,.05.09.09.13.12.26.17.58.3.84.47.15-.33.1-.72.12-1.08.01-.25.05-.52.06-.76,0-.21,0-.43,0-.64Z"/>
    <circle class="cls-1" cx="8.83" cy="3.05" r=".39"/>
  </g>
</svg>